<svg width="54" height="54" viewBox="0 0 54 54" fill="none" xmlns="http://www.w3.org/2000/svg">
<path d="M44.2125 14.625L38.0475 6.66003L46.89 4.90503L48.645 13.725L44.2125 14.625ZM37.5975 15.9075L31.4325 7.96503L27 8.84253L33.1875 16.785L37.5975 15.9075ZM9.35999 12.375L7.15499 12.8025C6.57538 12.9168 6.02403 13.1444 5.53257 13.4722C5.0411 13.8001 4.61918 14.2217 4.291 14.7129C3.96282 15.2041 3.73483 15.7553 3.62011 16.3348C3.50539 16.9143 3.5062 17.5108 3.62249 18.09L4.49999 22.5L15.525 20.3175L9.35999 12.375ZM26.5725 18.1125L20.4075 10.125L15.975 11.0475L22.1625 18.99L26.5725 18.1125ZM8.99999 45V27H45V29.4525C46.62 29.7225 48.1275 30.285 49.5 31.0725V22.5H4.49999V45C4.49999 46.1935 4.97409 47.3381 5.81801 48.182C6.66192 49.0259 7.80651 49.5 8.99999 49.5H31.0725C30.285 48.1275 29.745 46.62 29.4525 45H8.99999ZM51.75 40.2525L45.2475 39.69L42.75 33.75L40.2075 39.69L33.75 40.2525L38.655 44.4825L37.125 50.805L42.75 47.4525L48.2625 50.805L46.8 44.4825L51.75 40.2525Z" fill="white"/>
</svg>
