<svg width="58" height="58" viewBox="0 0 58 58" fill="none" xmlns="http://www.w3.org/2000/svg">
<path d="M39.2227 43.5L29.0002 37.3375L18.7777 43.5L21.4843 31.8759L12.4702 24.07L24.3602 23.055L29.0002 12.0834L33.6402 23.0309L45.5302 24.0459L36.516 31.8517L39.2227 43.5ZM29.0002 4.83337C15.636 4.83337 4.8335 15.7084 4.8335 29C4.8335 35.4094 7.37962 41.5563 11.9117 46.0885C14.1558 48.3325 16.8199 50.1126 19.752 51.3271C22.684 52.5416 25.8265 53.1667 29.0002 53.1667C35.4096 53.1667 41.5564 50.6206 46.0886 46.0885C50.6207 41.5563 53.1668 35.4094 53.1668 29C53.1668 25.8264 52.5417 22.6839 51.3273 19.7519C50.1128 16.8198 48.3327 14.1557 46.0886 11.9116C43.8445 9.66754 41.1804 7.88744 38.2483 6.67295C35.3163 5.45846 32.1738 4.83337 29.0002 4.83337Z" fill="white"/>
</svg>
