<?xml version="1.0" encoding="UTF-8"?>
<svg version="1.1" xmlns="http://www.w3.org/2000/svg" width="268" height="88">
<path d="M0 0 C88.44 0 176.88 0 268 0 C268 29.04 268 58.08 268 88 C179.56 88 91.12 88 0 88 C0 58.96 0 29.92 0 0 Z " fill="#DA0825" transform="translate(0,0)"/>
<path d="M0 0 C0.86367187 -0.01675781 1.72734375 -0.03351562 2.6171875 -0.05078125 C5.56829493 0.37671562 6.80859341 1.51520355 9.125 3.3125 C11.51763407 2.64478817 13.34597385 2.09152615 15.125 0.3125 C18.17897552 -0.12919067 21.07530077 -0.16466383 24.125 0.3125 C26.88069447 2.49409145 28.56088747 4.18427494 30.125 7.3125 C30.25915472 9.9848621 30.16818541 12.63500488 30.125 15.3125 C31.10082031 15.26609375 32.07664063 15.2196875 33.08203125 15.171875 C34.35433594 15.13578125 35.62664062 15.0996875 36.9375 15.0625 C38.20207031 15.01609375 39.46664062 14.9696875 40.76953125 14.921875 C44.125 15.3125 44.125 15.3125 46.07421875 17.203125 C47.125 19.3125 47.125 19.3125 47.125 21.3125 C47.785 21.3125 48.445 21.3125 49.125 21.3125 C49.3415625 20.384375 49.3415625 20.384375 49.5625 19.4375 C50.125 17.3125 50.125 17.3125 51.125 15.3125 C54.08357409 15.25870774 57.04117721 15.21892907 60 15.1875 C60.84175781 15.17074219 61.68351563 15.15398438 62.55078125 15.13671875 C63.35644531 15.13027344 64.16210938 15.12382812 64.9921875 15.1171875 C65.73581543 15.10671387 66.47944336 15.09624023 67.24560547 15.08544922 C69.125 15.3125 69.125 15.3125 71.125 17.3125 C71.88940902 20.9924868 70.83092912 23.08465946 68.90234375 26.125 C67.48917675 28.24375109 66.04474856 30.33805453 64.59179688 32.4296875 C61.89198604 36.34888086 61.89198604 36.34888086 61.078125 40.91015625 C62.44706634 44.05157014 64.10026586 46.85610059 65.9375 49.75 C66.96810547 51.38775391 66.96810547 51.38775391 68.01953125 53.05859375 C69.43405146 55.24467044 70.8909352 57.40385845 72.38671875 59.53515625 C74.125 62.3125 74.125 62.3125 74.125 65.3125 C70.35456968 65.45746508 66.58485258 65.54645607 62.8125 65.625 C61.74064453 65.66689453 60.66878906 65.70878906 59.56445312 65.75195312 C58.53642578 65.76806641 57.50839844 65.78417969 56.44921875 65.80078125 C55.50135498 65.82696533 54.55349121 65.85314941 53.5769043 65.88012695 C51.125 65.3125 51.125 65.3125 49.29223633 62.90698242 C48.125 60.3125 48.125 60.3125 48.125 58.3125 C46.42074547 59.93559956 45.08280446 61.38078879 43.8391571 63.39349365 C42.125 65.3125 42.125 65.3125 39.79011536 65.79351807 C38.87300278 65.78463562 37.9558902 65.77575317 37.01098633 65.76660156 C35.97013382 65.76629944 34.92928131 65.76599731 33.85688782 65.76568604 C32.73493515 65.74504089 31.61298248 65.72439575 30.45703125 65.703125 C29.30708176 65.69746521 28.15713226 65.69180542 26.97233582 65.68597412 C23.2936366 65.66355474 19.61590563 65.6133458 15.9375 65.5625 C13.44597759 65.5424423 10.95443994 65.52419026 8.46289062 65.5078125 C2.34988643 65.46367135 -3.76239254 65.39460353 -9.875 65.3125 C-9.875 59.0425 -9.875 52.7725 -9.875 46.3125 C-15.485 46.3125 -21.095 46.3125 -26.875 46.3125 C-26.875 52.5825 -26.875 58.8525 -26.875 65.3125 C-33.805 65.3125 -40.735 65.3125 -47.875 65.3125 C-48.205 63.9925 -48.535 62.6725 -48.875 61.3125 C-49.65810547 61.85390625 -49.65810547 61.85390625 -50.45703125 62.40625 C-56.6104941 66.28584129 -61.65126342 67.46621908 -68.875 66.3125 C-72.82112987 65.01720546 -76.38899496 63.25709235 -79.890625 61.03125 C-80.54546875 60.7940625 -81.2003125 60.556875 -81.875 60.3125 C-83.80405031 61.18894945 -83.80405031 61.18894945 -85.6875 62.6875 C-92.08269103 66.51828274 -98.64401373 66.39175168 -105.875 65.3125 C-112.86538454 62.70715983 -117.43233157 58.15811635 -121.875 52.3125 C-122.29072266 53.59447266 -122.29072266 53.59447266 -122.71484375 54.90234375 C-123.25818359 56.55943359 -123.25818359 56.55943359 -123.8125 58.25 C-124.17214844 59.35214844 -124.53179687 60.45429687 -124.90234375 61.58984375 C-125.875 64.3125 -125.875 64.3125 -126.875 65.3125 C-129.57154854 65.38569621 -132.24191458 65.40492537 -134.9375 65.375 C-135.69611328 65.37048828 -136.45472656 65.36597656 -137.23632812 65.36132812 C-139.11591871 65.3495068 -140.99546899 65.33157078 -142.875 65.3125 C-143.38192692 63.7313708 -143.88026443 62.14748617 -144.375 60.5625 C-144.6534375 59.68078125 -144.931875 58.7990625 -145.21875 57.890625 C-145.875 55.3125 -145.875 55.3125 -145.875 51.3125 C-146.535 51.3125 -147.195 51.3125 -147.875 51.3125 C-148.07996094 52.15554687 -148.28492188 52.99859375 -148.49609375 53.8671875 C-148.76550781 54.96289062 -149.03492188 56.05859375 -149.3125 57.1875 C-149.57933594 58.27804688 -149.84617188 59.36859375 -150.12109375 60.4921875 C-150.875 63.3125 -150.875 63.3125 -151.875 65.3125 C-157.155 65.3125 -162.435 65.3125 -167.875 65.3125 C-172.32271068 53.02277312 -176.39450159 40.63154353 -180.35888672 28.17944336 C-182.85543488 20.31682976 -182.85543488 20.31682976 -185.67578125 12.56640625 C-186.875 9.3125 -186.875 9.3125 -186.875 6.3125 C-179.615 6.3125 -172.355 6.3125 -164.875 6.3125 C-160.87109375 16.2734375 -160.87109375 16.2734375 -159.875 19.3125 C-160.205 19.9725 -160.535 20.6325 -160.875 21.3125 C-161.535 20.6525 -162.195 19.9925 -162.875 19.3125 C-163.535 19.6425 -164.195 19.9725 -164.875 20.3125 C-163.97080475 25.79715802 -162.74519282 30.95265458 -160.796875 36.16796875 C-160.4369043 37.13758545 -160.07693359 38.10720215 -159.70605469 39.10620117 C-159.43180664 39.83427979 -159.15755859 40.5623584 -158.875 41.3125 C-158.63789307 40.50506348 -158.40078613 39.69762695 -158.15649414 38.86572266 C-157.27648731 35.87227625 -156.39479893 32.87933186 -155.51196289 29.88671875 C-155.13010161 28.59101946 -154.74891266 27.29512183 -154.3684082 25.99902344 C-153.82159085 24.13685012 -153.27216008 22.27544484 -152.72265625 20.4140625 C-152.2277771 18.73304443 -152.2277771 18.73304443 -151.72290039 17.01806641 C-150.875 14.3125 -150.875 14.3125 -149.875 12.3125 C-147.895 12.3125 -145.915 12.3125 -143.875 12.3125 C-140.875 21.3125 -137.875 30.3125 -134.875 39.3125 C-131.86393456 33.9414103 -130.31127738 28.35526645 -128.6875 22.4375 C-128.41486328 21.46296875 -128.14222656 20.4884375 -127.86132812 19.484375 C-127.19378197 17.09526244 -126.53364424 14.704082 -125.875 12.3125 C-122.575 12.3125 -119.275 12.3125 -115.875 12.3125 C-116.0915625 13.13234375 -116.308125 13.9521875 -116.53125 14.796875 C-116.8096875 15.87453125 -117.088125 16.9521875 -117.375 18.0625 C-117.6534375 19.12984375 -117.931875 20.1971875 -118.21875 21.296875 C-119.01675989 24.44955302 -119.01675989 24.44955302 -118.875 28.3125 C-114.98846236 28.76622285 -114.98846236 28.76622285 -113.2265625 26.78125 C-112.65679687 26.1315625 -112.08703125 25.481875 -111.5 24.8125 C-107.69163751 21.28332197 -104.90968279 20.73929677 -99.75 20.625 C-93.36659765 20.97244239 -89.89764168 22.13208306 -85.453125 26.80859375 C-80.33452577 32.57420693 -80.875 35.04776603 -80.875 43.3125 C-90.115 43.3125 -99.355 43.3125 -108.875 43.3125 C-105.74324314 49.08510299 -105.74324314 49.08510299 -102.875 50.3125 C-100.76544938 50.50988723 -100.76544938 50.50988723 -98.4375 50.5 C-97.65503906 50.51417969 -96.87257813 50.52835938 -96.06640625 50.54296875 C-93.58294013 50.45336064 -93.58294013 50.45336064 -90.875 48.3125 C-86.73967552 48.64779658 -83.4970369 50.37513142 -79.875 52.3125 C-78.225 50.3325 -76.575 48.3525 -74.875 46.3125 C-72.38138429 47.51631448 -70.19356917 48.76678722 -67.875 50.3125 C-65.35915109 50.55400773 -65.35915109 50.55400773 -62.6875 50.4375 C-61.78644531 50.41945312 -60.88539063 50.40140625 -59.95703125 50.3828125 C-59.26996094 50.35960937 -58.58289063 50.33640625 -57.875 50.3125 C-57.545 48.9925 -57.215 47.6725 -56.875 46.3125 C-57.59945312 46.14234375 -58.32390625 45.9721875 -59.0703125 45.796875 C-65.89405519 44.08639017 -70.64388019 42.43591582 -75.75 37.5 C-77.40543273 34.28110302 -77.25053027 31.88003756 -76.875 28.3125 C-75.4375 25.6875 -75.4375 25.6875 -73.875 23.3125 C-72.77702226 19.71969467 -72.77702226 19.71969467 -73.875 16.3125 C-67.79414103 13.57830082 -61.54613021 13.0975936 -55.16015625 15.2109375 C-53.02609242 16.16165788 -50.94386607 17.22719321 -48.875 18.3125 C-48.875 14.3525 -48.875 10.3925 -48.875 6.3125 C-35.675 6.3125 -22.475 6.3125 -8.875 6.3125 C-8.215 4.9925 -7.555 3.6725 -6.875 2.3125 C-4.37490913 -0.18759087 -3.4537141 0.01537261 0 0 Z " fill="#0E1B25" transform="translate(190.875,6.6875)"/>
<path d="M0 0 C7.26 0 14.52 0 22 0 C26.00390625 9.9609375 26.00390625 9.9609375 27 13 C26.67 13.66 26.34 14.32 26 15 C25.34 14.34 24.68 13.68 24 13 C23.01 13.495 23.01 13.495 22 14 C22.90419525 19.48465802 24.12980718 24.64015458 26.078125 29.85546875 C26.4380957 30.82508545 26.79806641 31.79470215 27.16894531 32.79370117 C27.44319336 33.52177979 27.71744141 34.2498584 28 35 C28.23710693 34.19256348 28.47421387 33.38512695 28.71850586 32.55322266 C29.59851269 29.55977625 30.48020107 26.56683186 31.36303711 23.57421875 C31.74489839 22.27851946 32.12608734 20.98262183 32.5065918 19.68652344 C33.05340915 17.82435012 33.60283992 15.96294484 34.15234375 14.1015625 C34.6472229 12.42054443 34.6472229 12.42054443 35.15209961 10.70556641 C36 8 36 8 37 6 C38.98 6 40.96 6 43 6 C46 15 49 24 52 33 C55.01106544 27.6289103 56.56372262 22.04276645 58.1875 16.125 C58.59645508 14.66320312 58.59645508 14.66320312 59.01367188 13.171875 C59.68121803 10.78276244 60.34135576 8.391582 61 6 C64.3 6 67.6 6 71 6 C70.7834375 6.81984375 70.566875 7.6396875 70.34375 8.484375 C70.0653125 9.56203125 69.786875 10.6396875 69.5 11.75 C69.2215625 12.81734375 68.943125 13.8846875 68.65625 14.984375 C67.85824011 18.13705302 67.85824011 18.13705302 68 22 C71.88653764 22.45372285 71.88653764 22.45372285 73.6484375 20.46875 C74.21820313 19.8190625 74.78796875 19.169375 75.375 18.5 C79.18336249 14.97082197 81.96531721 14.42679677 87.125 14.3125 C93.50840235 14.65994239 96.97735832 15.81958306 101.421875 20.49609375 C106.54047423 26.26170693 106 28.73526603 106 37 C96.76 37 87.52 37 78 37 C81.13175686 42.77260299 81.13175686 42.77260299 84 44 C86.10955062 44.19738723 86.10955062 44.19738723 88.4375 44.1875 C89.21996094 44.20167969 90.00242187 44.21585938 90.80859375 44.23046875 C93.29205987 44.14086064 93.29205987 44.14086064 96 42 C101.95203049 42.34011603 108.01365059 45.66701151 112 50 C110.25 52.5 110.25 52.5 108 55 C106.68 55 105.36 55 104 55 C102.906875 55.66 101.81375 56.32 100.6875 57 C94.49830278 60.21606883 87.76682961 59.93606619 81 59 C74.0096445 56.40724691 69.43874953 51.84045991 65 46 C64.58427734 47.28197266 64.58427734 47.28197266 64.16015625 48.58984375 C63.61681641 50.24693359 63.61681641 50.24693359 63.0625 51.9375 C62.70285156 53.03964844 62.34320313 54.14179687 61.97265625 55.27734375 C61 58 61 58 60 59 C57.30345146 59.07319621 54.63308542 59.09242537 51.9375 59.0625 C50.79958008 59.05573242 50.79958008 59.05573242 49.63867188 59.04882812 C47.75908129 59.0370068 45.87953101 59.01907078 44 59 C43.49307308 57.4188708 42.99473557 55.83498617 42.5 54.25 C42.2215625 53.36828125 41.943125 52.4865625 41.65625 51.578125 C41 49 41 49 41 45 C40.34 45 39.68 45 39 45 C38.79503906 45.84304687 38.59007812 46.68609375 38.37890625 47.5546875 C38.10949219 48.65039062 37.84007812 49.74609375 37.5625 50.875 C37.29566406 51.96554688 37.02882812 53.05609375 36.75390625 54.1796875 C36 57 36 57 35 59 C29.72 59 24.44 59 19 59 C14.55228932 46.71027312 10.48049841 34.31904353 6.51611328 21.86694336 C4.01956512 14.00432976 4.01956512 14.00432976 1.19921875 6.25390625 C0 3 0 3 0 0 Z " fill="#111C25" transform="translate(4,13)"/>
<path d="M0 0 C4.62 0 9.24 0 14 0 C16.45946923 5.25432063 17.90301833 10.30860098 19 16 C19.27714844 15.01257812 19.55429687 14.02515625 19.83984375 13.0078125 C20.20562432 11.71351203 20.57151549 10.41924281 20.9375 9.125 C21.11990234 8.47402344 21.30230469 7.82304687 21.49023438 7.15234375 C22.88671875 2.2265625 22.88671875 2.2265625 24 0 C30.6 0 37.2 0 44 0 C45.13757948 4.55031791 44.4283779 6.63084406 43 11 C43.763125 10.505 44.52625 10.01 45.3125 9.5 C51.25407852 7.0830867 57.8351627 6.8446381 63.875 9.25 C66.87614908 10.93064349 69.41917922 12.73200599 72 15 C74.46800047 13.84826645 76.04783565 12.95216435 78 11 C80.125 11.375 80.125 11.375 82 12 C81.34 12.99 80.68 13.98 80 15 C80.99 15.33 81.98 15.66 83 16 C82.0409375 16.6496875 82.0409375 16.6496875 81.0625 17.3125 C78.73253997 18.91239177 78.73253997 18.91239177 78 22 C77.64328347 25.85253853 77.49636974 28.17343124 79.53515625 31.51953125 C82.65309238 34.65723243 85.64333904 35.84139933 89.75 37.3125 C90.44738281 37.57611328 91.14476562 37.83972656 91.86328125 38.11132812 C93.57047288 38.75444826 95.28459302 39.37912508 97 40 C96.67 41.65 96.34 43.3 96 45 C90.61456845 45.48761453 86.38941118 45.79079255 81.875 42.5 C80.92625 41.675 79.9775 40.85 79 40 C78.731875 40.598125 78.46375 41.19625 78.1875 41.8125 C77.01506533 43.97224808 75.80630718 45.35790256 74 47 C72.948125 46.319375 71.89625 45.63875 70.8125 44.9375 C68.17883225 43.42340761 67.30313116 42.97979126 64.1875 43.1875 C61.99850275 43.9558312 61.99850275 43.9558312 60 45 C56.94059163 45.42074378 54.0540292 45.47999423 51 45 C47.71824682 42.47031526 46.30756223 40.92268669 45 37 C54.24 37 63.48 37 73 37 C71.60528393 25.68579243 71.60528393 25.68579243 65 18 C59.70489052 14.58267163 53.0082409 15.08803486 47 16 C43.74119721 17.90096829 41.49269863 20.20576524 39 23 C38.01 23.495 38.01 23.495 37 24 C37 23.34 37 22.68 37 22 C36.01 22.33 35.02 22.66 34 23 C34.47986031 17.43109483 35.29915181 12.32932432 37 7 C34.03 6.67 31.06 6.34 28 6 C27.88527344 6.80308594 27.77054688 7.60617188 27.65234375 8.43359375 C26.86733715 12.72527654 25.74343106 16.86554675 24.5625 21.0625 C24.34529297 21.85205078 24.12808594 22.64160156 23.90429688 23.45507812 C22.80161844 27.40551469 21.63197788 31.22747438 20 35 C17.36195848 32.36195848 16.66108504 29.4100923 15.5625 25.9375 C15.12252551 24.57678098 14.68242171 23.21610376 14.2421875 21.85546875 C14.03045898 21.19466309 13.81873047 20.53385742 13.60058594 19.85302734 C12.8294229 17.47370725 12.00764937 15.11281129 11.1875 12.75 C10 9 10 9 10 6 C8.02 6 6.04 6 4 6 C3.76925781 6.98097656 3.53851563 7.96195313 3.30078125 8.97265625 C1.01206094 18.50819784 -1.75519997 27.7443409 -5 37 C-5.33 37 -5.66 37 -6 37 C-6.81694231 34.29293656 -7.62866494 31.58448604 -8.4375 28.875 C-8.66759766 28.11445312 -8.89769531 27.35390625 -9.13476562 26.5703125 C-10.37636362 22.39566417 -11.39875379 18.32620837 -12 14 C-10.68 13.34 -9.36 12.68 -8 12 C-7.01 13.485 -7.01 13.485 -6 15 C-3.8348583 10.05110469 -1.86749751 5.06892183 0 0 Z " fill="#0F1D26" transform="translate(37,13)"/>
<path d="M0 0 C2.97 0 5.94 0 9 0 C12.5879385 9.58190636 15.79393643 19.28562738 19 29 C19.23710693 28.19256348 19.47421387 27.38512695 19.71850586 26.55322266 C20.59851269 23.55977625 21.48020107 20.56683186 22.36303711 17.57421875 C22.74489839 16.27851946 23.12608734 14.98262183 23.5065918 13.68652344 C24.05340915 11.82435012 24.60283992 9.96294484 25.15234375 8.1015625 C25.48226318 6.98088379 25.81218262 5.86020508 26.15209961 4.70556641 C27 2 27 2 28 0 C29.98 0 31.96 0 34 0 C37 9 40 18 43 27 C46.01106544 21.6289103 47.56372262 16.04276645 49.1875 10.125 C49.59645508 8.66320312 49.59645508 8.66320312 50.01367188 7.171875 C50.68121803 4.78276244 51.34135576 2.391582 52 0 C55.3 0 58.6 0 62 0 C55.19885802 25.02891002 55.19885802 25.02891002 51 36.23046875 C49.71839253 39.77992068 48.81018529 43.31733958 48 47 C45.03 47 42.06 47 39 47 C38.75765625 46.14019531 38.5153125 45.28039062 38.265625 44.39453125 C37.93046875 43.21246094 37.5953125 42.03039063 37.25 40.8125 C36.92515625 39.66394531 36.6003125 38.51539063 36.265625 37.33203125 C34.57235279 31.53623223 32.77571503 25.77107384 31 20 C28.36 28.58 25.72 37.16 23 46 C20.03 46 17.06 46 14 46 C12.31970165 41.05880317 10.64768196 36.11490667 8.98291016 31.16845703 C8.41675737 29.48997675 7.84844256 27.81222398 7.27783203 26.13525391 C1.44595349 8.98687551 1.44595349 8.98687551 0 0 Z " fill="#E0E3D7" transform="translate(13,19)"/>
<path d="M0 0 C4.93852217 2.25265923 7.80894426 5.71486801 11 10 C12 13 12 13 12 22 C2.76 22 -6.48 22 -16 22 C-12.86824314 27.77260299 -12.86824314 27.77260299 -10 29 C-7.89044938 29.19738723 -7.89044938 29.19738723 -5.5625 29.1875 C-4.38880859 29.20876953 -4.38880859 29.20876953 -3.19140625 29.23046875 C-0.70794013 29.14086064 -0.70794013 29.14086064 2 27 C5.46418389 27.34641839 7.04929881 28.03286587 10 30 C8.82591916 33.65269596 6.61327165 35.47013323 3.25390625 37.23046875 C-2.1210669 39.06559823 -8.04394941 39.09879512 -13.375 37.1171875 C-15.48221383 35.91192504 -17.19578009 34.62088117 -19 33 C-19.79083984 32.32517578 -19.79083984 32.32517578 -20.59765625 31.63671875 C-25.10648643 26.77622493 -24.51933215 20.75768708 -24.46875 14.5234375 C-23.7105657 8.82441886 -20.72632256 4.78691096 -16.359375 1.17578125 C-11.2523786 -1.36926166 -5.51344082 -0.76870088 0 0 Z " fill="#DFE3D9" transform="translate(98,28)"/>
<path d="M0 0 C10.56 0 21.12 0 32 0 C32 2.64 32 5.28 32 8 C24.41 8 16.82 8 9 8 C9 11.63 9 15.26 9 19 C15.93 19 22.86 19 30 19 C30 21.64 30 24.28 30 27 C23.4 27 16.8 27 10 27 C10 33.6 10 40.2 10 47 C6.7 47 3.4 47 0 47 C0 31.49 0 15.98 0 0 Z " fill="#F6F7EC" transform="translate(148,19)"/>
<path d="M0 0 C2.44794548 1.2205054 4.83422771 2.49482518 7.1953125 3.875 C7.1953125 6.875 7.1953125 6.875 5.9453125 8.625 C4.1953125 9.875 4.1953125 9.875 2.1328125 9.625 C0.1953125 8.875 0.1953125 8.875 -1.8046875 7.875 C-3.17811581 7.8060528 -4.55470852 7.79032292 -5.9296875 7.8125 C-7.2084375 7.833125 -8.4871875 7.85375 -9.8046875 7.875 C-10.1346875 9.195 -10.4646875 10.515 -10.8046875 11.875 C-10.1034375 12.03355469 -9.4021875 12.19210938 -8.6796875 12.35546875 C-2.10388249 13.97261645 4.27828615 15.95797365 9.1953125 20.875 C9.74706794 24.61905478 10.0126382 28.31881186 8.21875 31.734375 C5.1485591 35.53915145 2.31080338 37.58415827 -2.50390625 38.24609375 C-9.93857006 38.4113085 -14.71752428 37.1790548 -20.8046875 32.875 C-20.8046875 28.60673127 -20.42855237 27.93617568 -17.8046875 24.875 C-15.31107179 26.07881448 -13.12325667 27.32928722 -10.8046875 28.875 C-8.28883859 29.11650773 -8.28883859 29.11650773 -5.6171875 29 C-4.26560547 28.97292969 -4.26560547 28.97292969 -2.88671875 28.9453125 C-2.19964844 28.92210938 -1.51257813 28.89890625 -0.8046875 28.875 C-0.4746875 27.555 -0.1446875 26.235 0.1953125 24.875 C-0.52914062 24.70484375 -1.25359375 24.5346875 -2 24.359375 C-8.82374269 22.64889017 -13.57356769 20.99841582 -18.6796875 16.0625 C-20.33512023 12.84360302 -20.18021777 10.44253756 -19.8046875 6.875 C-16.13772124 -1.61692186 -8.10391757 -3.25059646 0 0 Z " fill="#D7DCD6" transform="translate(133.8046875,28.125)"/>
<path d="M0 0 C3.45340976 -0.49139427 6.56516708 -0.68492204 10 0 C12.67533333 2.28866406 14.44437274 4.85080335 16 8 C16 8.66 16 9.32 16 10 C19.70567584 6.53851526 19.70567584 6.53851526 22.1875 2.1875 C24 0 24 0 26.40625 -0.3125 C28.95603948 -0.3125 31.45983577 -0.21446039 34 0 C31.10835181 5.5273983 28.09044386 10.39921029 23.94140625 15.078125 C22.73533186 17.01744669 22.73533186 17.01744669 23.58984375 19.35546875 C25.21600665 22.40508726 27.04141276 25.21462774 29 28.0625 C31.25660439 31.35199867 33.21130377 34.42260754 35 38 C31.37 38 27.74 38 24 38 C22.53515625 35.02148438 22.53515625 35.02148438 21.0703125 32.04296875 C19.9343514 29.78753582 19.9343514 29.78753582 18 27 C17.34 27 16.68 27 16 27 C14.44100063 29.2159833 14.44100063 29.2159833 12.9375 31.9375 C10.05960265 36.94039735 10.05960265 36.94039735 9 38 C7.31391034 38.07205511 5.62499341 38.08386068 3.9375 38.0625 C3.01839844 38.05347656 2.09929687 38.04445312 1.15234375 38.03515625 C0.44207031 38.02355469 -0.26820313 38.01195312 -1 38 C0.79774608 32.83148002 3.83111212 29.02986796 7.125 24.71875 C9.75009566 21.13889719 9.75009566 21.13889719 11 17 C9.57564192 14.14891779 7.63170406 11.77549033 5.625 9.3125 C4.57179838 7.97819022 3.52213005 6.64108149 2.4765625 5.30078125 C2.00299316 4.71466064 1.52942383 4.12854004 1.04150391 3.5246582 C0 2 0 2 0 0 Z " fill="#E0E6DE" transform="translate(221,28)"/>
<path d="M0 0 C2.375 0.6875 2.375 0.6875 3.375 1.6875 C3.46833705 3.28360982 3.49245372 4.88383428 3.48852539 6.48266602 C3.48844986 7.50364883 3.48837433 8.52463165 3.48829651 9.57655334 C3.48313522 10.6869548 3.47797394 11.79735626 3.47265625 12.94140625 C3.4712413 14.07198959 3.46982635 15.20257294 3.46836853 16.36741638 C3.46275019 19.99497065 3.45019458 23.62246424 3.4375 27.25 C3.43248736 29.70247307 3.42792405 32.1549471 3.42382812 34.60742188 C3.4127748 40.63413545 3.39601884 46.66081339 3.375 52.6875 C0.405 52.6875 -2.565 52.6875 -5.625 52.6875 C-5.70087458 45.46100568 -5.75352551 38.23461351 -5.78979492 31.0078125 C-5.80490988 28.54781252 -5.82540227 26.08783959 -5.85131836 23.62792969 C-5.8875823 20.09823948 -5.90469914 16.56890456 -5.91796875 13.0390625 C-5.93345261 11.93382233 -5.94893646 10.82858215 -5.96488953 9.68984985 C-5.96511612 8.66894257 -5.96534271 7.64803528 -5.96557617 6.59619141 C-5.97223801 5.69462311 -5.97889984 4.79305481 -5.98576355 3.86416626 C-5.86671158 3.14586639 -5.74765961 2.42756653 -5.625 1.6875 C-2.625 -0.3125 -2.625 -0.3125 0 0 Z " fill="#E5E2D2" transform="translate(192.625,13.3125)"/>
<path d="M0 0 C3.3 0 6.6 0 10 0 C10 12.54 10 25.08 10 38 C6.7 38 3.4 38 0 38 C0 25.46 0 12.92 0 0 Z " fill="#D5DFD5" transform="translate(205,28)"/>
<path d="M0 0 C10.23 0 20.46 0 31 0 C31 0.33 31 0.66 31 1 C21.1 1 11.2 1 1 1 C1.33 10.57 1.66 20.14 2 30 C4.475 30.99 4.475 30.99 7 32 C7.33 32.33 7.66 32.66 8 33 C8.33 31.35 8.66 29.7 9 28 C9.33 28 9.66 28 10 28 C10 34.27 10 40.54 10 47 C6.7 47 3.4 47 0 47 C0 31.49 0 15.98 0 0 Z " fill="#BBC9CA" transform="translate(148,19)"/>
<path d="M0 0 C9.24 0 18.48 0 28 0 C28 0.33 28 0.66 28 1 C24.7 1 21.4 1 18 1 C18 1.66 18 2.32 18 3 C18.99 3.33 19.98 3.66 21 4 C16.53719015 7.42148755 13.87706324 8.40068086 8.26171875 8.35546875 C4.64298801 7.78672178 3.11969777 5.84834388 1 3 C0.67 2.01 0.34 1.02 0 0 Z " fill="#17242B" transform="translate(82,50)"/>
<path d="M0 0 C2.5625 1.75 2.5625 1.75 4 4 C4 5.32 4 6.64 4 8 C-1.61 8 -7.22 8 -13 8 C-11.35699135 -0.21504324 -7.88900403 -1.29584723 0 0 Z " fill="#10212E" transform="translate(96,35)"/>
<path d="M0 0 C0.79148438 -0.01417969 1.58296875 -0.02835937 2.3984375 -0.04296875 C4.625 0.1875 4.625 0.1875 7.625 2.1875 C6.965 4.8275 6.305 7.4675 5.625 10.1875 C5.068125 9.671875 4.51125 9.15625 3.9375 8.625 C1.72092692 6.92127425 1.72092692 6.92127425 -0.875 7.4375 C-2.1125 7.80875 -2.1125 7.80875 -3.375 8.1875 C-4.5196875 8.4659375 -4.5196875 8.4659375 -5.6875 8.75 C-6.244375 8.894375 -6.80125 9.03875 -7.375 9.1875 C-7.375 8.1975 -7.375 7.2075 -7.375 6.1875 C-8.695 5.8575 -10.015 5.5275 -11.375 5.1875 C-9.98183123 2.40116246 -8.21519484 2.25257306 -5.375 1.1875 C-3.79539731 -0.39210269 -2.17963184 0.01763456 0 0 Z " fill="#09171A" transform="translate(210.375,6.8125)"/>
<path d="M0 0 C1.875 0.8125 1.875 0.8125 3.875 2.8125 C3.29807692 9.38942308 3.29807692 9.38942308 1.875 10.8125 C-1.0625 11 -1.0625 11 -4.125 10.8125 C-6.125 8.8125 -6.125 8.8125 -6.5 5.875 C-6.125 2.8125 -6.125 2.8125 -4.375 0.875 C-2.125 -0.1875 -2.125 -0.1875 0 0 Z " fill="#F6D8BA" transform="translate(211.125,13.1875)"/>
<path d="M0 0 C10.23 0 20.46 0 31 0 C31 0.33 31 0.66 31 1 C21.1 1 11.2 1 1 1 C1.12375 5.351875 1.2475 9.70375 1.375 14.1875 C1.40899902 15.55156982 1.44299805 16.91563965 1.47802734 18.32104492 C1.5136377 19.40490479 1.54924805 20.48876465 1.5859375 21.60546875 C1.6173584 22.71043701 1.6487793 23.81540527 1.68115234 24.95385742 C1.99877182 27.98826646 2.72246035 30.24544522 4 33 C2.68 34.32 1.36 35.64 0 37 C0 24.79 0 12.58 0 0 Z " fill="#C7CEBE" transform="translate(148,19)"/>
<path d="M0 0 C0.66 0 1.32 0 2 0 C3.19287411 3.87684087 4 6.91621923 4 11 C3.195625 11.12375 2.39125 11.2475 1.5625 11.375 C0.716875 11.58125 -0.12875 11.7875 -1 12 C-1.33 12.66 -1.66 13.32 -2 14 C-2.66 14 -3.32 14 -4 14 C-3.52372025 12.04096255 -3.04388577 10.08278903 -2.5625 8.125 C-2.29566406 7.03445312 -2.02882812 5.94390625 -1.75390625 4.8203125 C-1 2 -1 2 0 0 Z " fill="#B60B26" transform="translate(43,58)"/>
<path d="M0 0 C0.66 0.33 1.32 0.66 2 1 C1.01 3.97 0.02 6.94 -1 10 C0.32 10.66 1.64 11.32 3 12 C-0.3 12 -3.6 12 -7 12 C-5.44298069 7.32894208 -2.91552627 3.91294315 0 0 Z " fill="#ABC0C2" transform="translate(227,54)"/>
<path d="M0 0 C0.99 0 1.98 0 3 0 C3 6.27 3 12.54 3 19 C0.51955685 15.27933528 0.55618827 12.13459526 0.375 7.8125 C0.33632812 7.06291016 0.29765625 6.31332031 0.2578125 5.54101562 C0.16371784 3.69440801 0.08077681 1.8472381 0 0 Z " fill="#D22243" transform="translate(178,53)"/>
<path d="M0 0 C0 0.33 0 0.66 0 1 C-0.65226562 1.10957031 -1.30453125 1.21914063 -1.9765625 1.33203125 C-8.69732922 2.55128539 -14.15772169 3.91560778 -19 9 C-19.66 9 -20.32 9 -21 9 C-21 7.68 -21 6.36 -21 5 C-13.7355197 1.55828345 -8.08330939 -0.67360912 0 0 Z " fill="#D9193D" transform="translate(130,20)"/>
<path d="M0 0 C3.3 0 6.6 0 10 0 C9.67 0.99 9.34 1.98 9 3 C6.66989091 3.67784992 4.33640176 4.34416793 2 5 C1.34 5.99 0.68 6.98 0 8 C0 5.36 0 2.72 0 0 Z " fill="#E9EAE5" transform="translate(65,19)"/>
<path d="M0 0 C2 1.8125 2 1.8125 4 4 C4 4.99 4 5.98 4 7 C-3.59 7 -11.18 7 -19 7 C-19 6.67 -19 6.34 -19 6 C-12.73 5.67 -6.46 5.34 0 5 C0 3.35 0 1.7 0 0 Z " fill="#180D18" transform="translate(261,65)"/>
<path d="M0 0 C2.83374881 3.20336822 3.5205537 5.78087253 4 10 C6.97 10.495 6.97 10.495 10 11 C10.33 9.35 10.66 7.7 11 6 C12.125 9.75 12.125 9.75 11 12 C8.03 12 5.06 12 2 12 C0.70756464 7.8803623 -0.26252625 4.33168317 0 0 Z " fill="#A3A99D" transform="translate(50,54)"/>
<path d="M0 0 C1.23556641 0.01740234 1.23556641 0.01740234 2.49609375 0.03515625 C3.32238281 0.04417969 4.14867187 0.05320312 5 0.0625 C5.63808594 0.07410156 6.27617187 0.08570313 6.93359375 0.09765625 C6.93359375 0.42765625 6.93359375 0.75765625 6.93359375 1.09765625 C4.29359375 1.09765625 1.65359375 1.09765625 -1.06640625 1.09765625 C-1.39640625 2.41765625 -1.72640625 3.73765625 -2.06640625 5.09765625 C-4.04640625 5.42765625 -6.02640625 5.75765625 -8.06640625 6.09765625 C-8.06640625 5.10765625 -8.06640625 4.11765625 -8.06640625 3.09765625 C-7.26203125 2.78828125 -6.45765625 2.47890625 -5.62890625 2.16015625 C-0.47303276 0.02235505 -0.47303276 0.02235505 0 0 Z " fill="#270B12" transform="translate(208.06640625,6.90234375)"/>
<path d="M0 0 C0.33 0 0.66 0 1 0 C1.13277344 0.68707031 1.26554688 1.37414063 1.40234375 2.08203125 C1.57894531 2.98308594 1.75554687 3.88414063 1.9375 4.8125 C2.11152344 5.70582031 2.28554687 6.59914063 2.46484375 7.51953125 C2.97741153 10.11397171 2.97741153 10.11397171 4 13 C2.68 14.32 1.36 15.64 0 17 C0 11.39 0 5.78 0 0 Z " fill="#DFE1D5" transform="translate(148,39)"/>
<path d="M0 0 C-0.61875 0.2475 -1.2375 0.495 -1.875 0.75 C-4.35068687 2.20628639 -4.95125002 3.37812506 -6 6 C-5.01 6.33 -4.02 6.66 -3 7 C-3.33 7.66 -3.66 8.32 -4 9 C-2.35 9 -0.7 9 1 9 C1 9.33 1 9.66 1 10 C-1.875 10.125 -1.875 10.125 -5 10 C-7 8 -7 8 -7.375 5.0625 C-7 2 -7 2 -5.1875 0.0625 C-3 -1 -3 -1 0 0 Z " fill="#BFB1A3" transform="translate(212,14)"/>
<path d="M0 0 C1.65 0.99 3.3 1.98 5 3 C3.48601545 6.78496138 2.9855604 7.0072198 -1 9 C-0.67 6.03 -0.34 3.06 0 0 Z " fill="#BBC6C2" transform="translate(103,55)"/>
<path d="M0 0 C2.64 0 5.28 0 8 0 C6.515 1.98 6.515 1.98 5 4 C3.35 3.67 1.7 3.34 0 3 C0 2.01 0 1.02 0 0 Z " fill="#CA0224" transform="translate(124,73)"/>
<path d="M0 0 C0.52078125 0.15339844 1.0415625 0.30679688 1.578125 0.46484375 C4.63278515 1.13982511 7.63015971 1.34411118 10.75 1.5625 C11.92046875 1.64628906 13.0909375 1.73007813 14.296875 1.81640625 C15.18890625 1.87699219 16.0809375 1.93757813 17 2 C17 2.33 17 2.66 17 3 C11.72 3 6.44 3 1 3 C0.67 2.01 0.34 1.02 0 0 Z " fill="#9D0B24" transform="translate(81,70)"/>
<path d="M0 0 C0.625 1.8125 0.625 1.8125 1 4 C0.01 5.485 0.01 5.485 -1 7 C-1.66 7 -2.32 7 -3 7 C-3.66 8.32 -4.32 9.64 -5 11 C-5 7.58678765 -4.33132534 6.60527115 -2.5 3.8125 C-2.0359375 3.09707031 -1.571875 2.38164062 -1.09375 1.64453125 C-0.7328125 1.10183594 -0.371875 0.55914063 0 0 Z " fill="#D12835" transform="translate(261,29)"/>
<path d="M0 0 C3.3 0 6.6 0 10 0 C10 0.33 10 0.66 10 1 C7.36 1 4.72 1 2 1 C2 1.99 2 2.98 2 4 C0.68 4.33 -0.64 4.66 -2 5 C-1.34 3.35 -0.68 1.7 0 0 Z " fill="#D9DCDF" transform="translate(245,28)"/>
<path d="M0 0 C-1.75 2.0625 -1.75 2.0625 -4 4 C-6.25 3.75 -6.25 3.75 -8 3 C-5.45189726 -0.82215411 -4.39145359 -1.46381786 0 0 Z " fill="#EF3546" transform="translate(186,8)"/>
<path d="M0 0 C2.89932357 2.39509338 3.50168276 4.31245243 4 8 C1.525 7.01 1.525 7.01 -1 6 C-0.67 4.02 -0.34 2.04 0 0 Z " fill="#444949" transform="translate(43,38)"/>
<path d="M0 0 C1.125 3.75 1.125 3.75 0 6 C-1.98 6 -3.96 6 -6 6 C-6 5.34 -6 4.68 -6 4 C-4.68 4.33 -3.36 4.66 -2 5 C-1.34 3.35 -0.68 1.7 0 0 Z " fill="#EEE5D1" transform="translate(214,17)"/>
<path d="M0 0 C0 0.99 0 1.98 0 3 C-0.66 3 -1.32 3 -2 3 C-2 3.66 -2 4.32 -2 5 C-3.32 4.67 -4.64 4.34 -6 4 C-2.25 0 -2.25 0 0 0 Z " fill="#F0BE9F" transform="translate(212,14)"/>
<path d="M0 0 C0.66 0 1.32 0 2 0 C3.125 4.75 3.125 4.75 2 7 C1.34 7 0.68 7 0 7 C0 4.69 0 2.38 0 0 Z " fill="#BE0923" transform="translate(221,43)"/>
</svg>
