<svg width="58" height="58" viewBox="0 0 58 58" fill="none" xmlns="http://www.w3.org/2000/svg">
<path d="M45.34 12.6581C43.2004 10.4836 40.6515 8.75418 37.8403 7.56967C35.029 6.38516 32.0111 5.76897 28.9605 5.75666C25.9099 5.74434 22.8871 6.33614 20.0664 7.49791C17.2456 8.65968 14.6829 10.3684 12.5258 12.5256C10.3688 14.6828 8.66022 17.2457 7.49864 20.0665C6.33707 22.8873 5.74548 25.9102 5.75801 28.9607C5.77053 32.0113 6.38693 35.0292 7.57163 37.8404C8.75634 40.6516 10.4859 43.2003 12.6606 45.3397C14.8001 47.5143 17.349 49.2436 20.1603 50.4282C22.9715 51.6127 25.9895 52.2288 29.04 52.2412C32.0906 52.2535 35.1135 51.6617 37.9342 50.4999C40.7549 49.3381 43.3177 47.6294 45.4747 45.4722C47.6317 43.315 49.3403 40.7521 50.5019 37.9313C51.6635 35.1105 52.2551 32.0877 52.2425 29.0371C52.23 25.9865 51.6136 22.9686 50.4289 20.1574C49.2442 17.3463 47.5146 14.7975 45.34 12.6581ZM24.0159 30.3594H33.9846L37.1792 37.2832C35.7747 36.6637 34.2019 36.5379 32.7168 36.9263C31.2316 37.3146 29.9217 38.1942 29.0003 39.4219C28.0793 38.1929 26.7693 37.3121 25.2836 36.9229C23.798 36.5337 22.2243 36.6591 20.8191 37.2786L24.0159 30.3594ZM25.271 27.6407L29.0003 19.5569L32.7318 27.6407H25.271ZM30.3596 43.5C30.3596 42.4185 30.7893 41.3812 31.5541 40.6164C32.3189 39.8516 33.3562 39.4219 34.4378 39.4219C35.5194 39.4219 36.5566 39.8516 37.3214 40.6164C38.0862 41.3812 38.5159 42.4185 38.5159 43.5V47.0435C35.9899 48.3767 33.2101 49.1596 30.3596 49.3408V43.5ZM19.4846 43.5C19.4846 42.4185 19.9143 41.3812 20.6791 40.6164C21.4439 39.8516 22.4812 39.4219 23.5628 39.4219C24.6444 39.4219 25.6816 39.8516 26.4464 40.6164C27.2112 41.3812 27.6409 42.4185 27.6409 43.5V49.3408C24.7904 49.1596 22.0106 48.3767 19.4846 47.0435V43.5ZM43.4187 43.4185C42.735 44.0992 42.0053 44.7321 41.2346 45.3125V39.875C41.2347 39.6787 41.1921 39.4847 41.11 39.3064L30.235 15.7439C30.1263 15.5078 29.9523 15.3079 29.7334 15.1677C29.5146 15.0275 29.2601 14.9531 29.0003 14.9531C28.7404 14.9531 28.486 15.0275 28.2671 15.1677C28.0483 15.3079 27.8742 15.5078 27.7655 15.7439L16.8905 39.3064C16.8084 39.4847 16.7659 39.6787 16.7659 39.875V45.3125C15.9952 44.7313 15.2654 44.0977 14.5818 43.4162C11.7302 40.5645 9.78818 36.9313 9.00142 32.9759C8.21467 29.0205 8.61848 24.9206 10.1618 21.1947C11.7051 17.4689 14.3187 14.2843 17.6719 12.0438C21.0251 9.80322 24.9674 8.60733 29.0003 8.60733C33.0331 8.60733 36.9754 9.80322 40.3287 12.0438C43.6819 14.2843 46.2954 17.4689 47.8387 21.1947C49.382 24.9206 49.7859 29.0205 48.9991 32.9759C48.2124 36.9313 46.2704 40.5645 43.4187 43.4162V43.4185Z" fill="white"/>
</svg>
