<svg width="408" height="582" viewBox="0 0 408 582" fill="none" xmlns="http://www.w3.org/2000/svg">
<rect width="408" height="582" fill="#E0E0E0"/>
<path d="M240.548 342.667L204.417 320.885L168.285 342.667L177.852 301.581L145.992 273.992L188.017 270.404L204.417 231.625L220.817 270.319L262.842 273.906L230.981 301.496L240.548 342.667ZM204.417 206C157.181 206 119 244.437 119 291.417C119 314.071 127.999 335.797 144.018 351.815C151.95 359.747 161.366 366.039 171.729 370.331C182.092 374.624 193.2 376.833 204.417 376.833C227.071 376.833 248.797 367.834 264.815 351.815C280.834 335.797 289.833 314.071 289.833 291.417C289.833 280.2 287.624 269.092 283.331 258.729C279.039 248.366 272.747 238.95 264.815 231.018C256.884 223.086 247.467 216.795 237.104 212.502C226.741 208.209 215.634 206 204.417 206Z" fill="#7F7F7F"/>
</svg>
