<svg width="352" height="341" viewBox="0 0 352 341" fill="none" xmlns="http://www.w3.org/2000/svg">
<ellipse cx="176" cy="170.5" rx="176" ry="170.5" fill="url(#paint0_linear_147_12755)"/>
<path d="M259.204 241.772C246.83 220.379 227.76 205.039 205.506 197.767C216.514 191.214 225.066 181.228 229.85 169.344C234.634 157.46 235.384 144.334 231.986 131.982C228.587 119.63 221.228 108.735 211.039 100.97C200.849 93.2053 188.392 89 175.582 89C162.771 89 150.314 93.2053 140.124 100.97C129.935 108.735 122.576 119.63 119.177 131.982C115.779 144.334 116.529 157.46 121.313 169.344C126.097 181.228 134.649 191.214 145.657 197.767C123.403 205.031 104.333 220.371 91.959 241.772C91.5053 242.512 91.2043 243.335 91.0738 244.193C90.9434 245.052 90.9861 245.927 91.1996 246.769C91.413 247.61 91.7928 248.4 92.3165 249.092C92.8402 249.784 93.4973 250.365 94.2489 250.799C95.0005 251.233 95.8315 251.512 96.6927 251.62C97.554 251.728 98.4282 251.662 99.2636 251.426C100.099 251.191 100.879 250.791 101.557 250.249C102.235 249.707 102.798 249.035 103.212 248.272C118.52 221.817 145.576 206.022 175.582 206.022C205.587 206.022 232.643 221.817 247.951 248.272C248.365 249.035 248.928 249.707 249.606 250.249C250.284 250.791 251.064 251.191 251.899 251.426C252.735 251.662 253.609 251.728 254.47 251.62C255.332 251.512 256.163 251.233 256.914 250.799C257.666 250.365 258.323 249.784 258.847 249.092C259.37 248.4 259.75 247.61 259.964 246.769C260.177 245.927 260.22 245.052 260.089 244.193C259.959 243.335 259.658 242.512 259.204 241.772ZM130.082 147.522C130.082 138.523 132.75 129.726 137.75 122.244C142.749 114.761 149.855 108.929 158.169 105.486C166.483 102.042 175.632 101.141 184.458 102.896C193.284 104.652 201.392 108.985 207.755 115.349C214.118 121.712 218.452 129.819 220.207 138.645C221.963 147.472 221.062 156.62 217.618 164.934C214.174 173.248 208.342 180.354 200.86 185.354C193.378 190.354 184.581 193.022 175.582 193.022C163.518 193.009 151.953 188.211 143.422 179.681C134.892 171.151 130.094 159.585 130.082 147.522Z" fill="white"/>
<defs>
<linearGradient id="paint0_linear_147_12755" x1="176" y1="0" x2="-64" y2="240" gradientUnits="userSpaceOnUse">
<stop stop-color="#4248F2"/>
<stop offset="1" stop-color="#D0D2FF"/>
</linearGradient>
</defs>
</svg>
